<?xml version="1.0" encoding="utf-8"?>
<!-- Generator: Adobe Illustrator 24.0.1, SVG Export Plug-In . SVG Version: 6.00 Build 0)  -->
<svg version="1.1" id="Layer_1" xmlns="http://www.w3.org/2000/svg" xmlns:xlink="http://www.w3.org/1999/xlink" x="0px" y="0px"
	 viewBox="0 0 48 19.9" style="enable-background:new 0 0 48 19.9;" xml:space="preserve">
<style type="text/css">
	.st0{fill:#E92A2D;}
</style>
<path class="st0" d="M10.7,4.5C10.9,4.8,11,5,11.1,5.3l0.2-0.1l-0.4-2.4c-0.1,0.1-0.2,0.1-0.2,0.1c-0.1,0-0.1,0-0.2,0
	c-0.1,0-0.1,0-0.2,0H6.6L6.5,3H6.4C6.3,3,6.3,2.9,6.2,2.9L5.7,5.2h0.2C5.9,5,6,4.9,6.1,4.6c0.1-0.2,0.2-0.3,0.3-0.4
	C6.6,4.1,6.8,4,7,3.9s0.4-0.1,0.6-0.1v5c0,0.2,0,0.3,0,0.4c0,0.1-0.1,0.2-0.1,0.3C7.3,9.6,7.1,9.7,7,9.7H6.9V10h3.2V9.7
	c-0.1,0-0.2,0-0.3-0.1c-0.1,0-0.2-0.1-0.2-0.2c-0.1,0-0.2-0.2-0.2-0.3c0-0.1,0-0.3,0-0.4V8.5V3.7c0.3,0,0.5,0.1,0.7,0.2
	C10.3,4.1,10.5,4.3,10.7,4.5z"/>
<path class="st0" d="M24.3,10V9.7c-0.1,0-0.2,0-0.2-0.1C24,9.6,24,9.5,24,9.5c0-0.1-0.1-0.2-0.1-0.2c0-0.1,0-0.2,0-0.3V4.3L26.6,8
	c0.2,0.2,0.3,0.4,0.3,0.5C27,8.7,27,8.9,27,9.1c0,0.3-0.1,0.5-0.3,0.6c0,0-0.1,0-0.2,0V10h1.8V9.7c-0.1,0-0.2,0-0.2-0.1
	c-0.1,0-0.1-0.1-0.2-0.2c0-0.1-0.1-0.2-0.1-0.3s0-0.2,0-0.3V4.3c0-0.1,0-0.3,0-0.4s0.1-0.3,0.1-0.4c0-0.1,0.1-0.1,0.2-0.2h0.1V3
	h-1.8v0.3c0.1,0,0.2,0,0.2,0.1c0.1,0,0.1,0.1,0.2,0.2c0,0.1,0.1,0.1,0.1,0.2c0,0.1,0,0.2,0,0.3v1.7L25.7,4l-0.1-0.1
	c0-0.1-0.1-0.1-0.1-0.2V3.6l0.1-0.1h0.1V3h-3.3v0.3c0.1,0,0.3,0.1,0.3,0.2c0,0.1,0.1,0.1,0.1,0.3s0,0.3,0,0.4v4.4
	c0,0.2,0,0.4-0.1,0.6c0,0.2-0.1,0.3-0.2,0.4l0,0c-0.1-0.1-0.1-0.1-0.1-0.2l-0.1-0.1l-1.5-5.4V3.8V3.7V3.6c0-0.1,0.1-0.1,0.2-0.1V3
	h-2.6v0.3h0.1l0.1,0.1c0,0.1,0,0.1,0,0.2c0,0.1,0,0.1,0,0.2c0,0.1,0,0.1-0.1,0.2l-1.6,5c0,0.1-0.1,0.2-0.1,0.4c0,0,0,0,0,0.1
	c0-0.1-0.1-0.2-0.1-0.4c-0.2-0.6-0.4-1-0.5-1.2C16,7.6,15.9,7.3,15.7,7s-0.4-0.6-0.5-0.9c0,0,0.1-0.1,0.3-0.2
	c0.3-0.2,0.5-0.4,0.6-0.6c0.2-0.3,0.3-0.6,0.3-1c0,0,0-0.1,0-0.2c0-0.3-0.2-0.6-0.4-0.7C16,3.1,15.7,3,15.2,3h-4.1v0.3
	c0.1,0,0.2,0,0.2,0.1c0.1,0,0.1,0.1,0.2,0.2c0,0.1,0.1,0.3,0.1,0.5c0,0.1,0,0.2,0,0.3V9c0,0.2,0,0.3,0,0.4c0,0.1-0.1,0.2-0.2,0.3
	l-0.1,0.1c-0.1,0-0.1,0-0.2,0V10h2.8V9.7c-0.1,0-0.1,0-0.2-0.1c-0.1,0-0.1-0.1-0.2-0.2c0-0.1-0.1-0.2-0.1-0.2c0-0.1,0-0.2,0-0.4v-2
	l0.3-0.2L14,7.3c0.1,0.2,0.2,0.4,0.3,0.5c0.3,0.6,0.4,0.9,0.5,1.1c0.1,0.2,0.1,0.4,0.1,0.5s0,0.2-0.1,0.2c-0.1,0.1-0.2,0.1-0.3,0.1
	V10h3.8V9.7c-0.1,0-0.1,0-0.2-0.1c-0.1,0-0.1-0.1-0.2-0.2c0-0.1,0-0.1,0-0.2c0-0.2,0-0.4,0.1-0.6l0.4-1.4c0.1,0,0.3,0,0.5,0.1
	s0.4,0.1,0.5,0.1c0.3,0.1,0.5,0.4,0.7,0.7s0.3,0.5,0.3,0.7c0,0,0,0.1,0,0.2c0,0.3-0.1,0.4-0.2,0.5c-0.1,0-0.1,0.1-0.2,0.1V10
	C20.1,10,24.3,10,24.3,10z M14.4,5.5c-0.2,0.2-0.5,0.4-0.8,0.5l-0.2,0.1V4.3c0-0.1,0-0.2,0-0.3c0-0.1,0.1-0.1,0.2-0.2
	c0.1-0.1,0.3-0.1,0.4-0.1c0.2,0,0.4,0.1,0.5,0.2c0.2,0.1,0.3,0.3,0.3,0.6C14.8,4.9,14.7,5.2,14.4,5.5z M19.7,6.7
	c-0.1-0.1-0.3-0.2-0.4-0.2S19.1,6.4,19,6.4c-0.1,0-0.1,0-0.2,0l0.6-2L20,6.9C19.9,6.8,19.8,6.8,19.7,6.7z"/>
<path class="st0" d="M39,10c0.1,0,0.2,0,0.2,0l0.2,0.1l0.8-2.7L40,7.3c-0.1,0.3-0.2,0.6-0.5,1c-0.2,0.3-0.4,0.5-0.7,0.7
	c-0.2,0.1-0.3,0.2-0.5,0.3s-0.4,0.1-0.6,0.1c-0.2,0-0.3,0-0.4-0.1C37.1,9.2,37,9.1,37,9c-0.1-0.1-0.1-0.2-0.1-0.3s0-0.3,0-0.4V8.2V6
	h0.7c0.1,0,0.2,0,0.3,0.1s0.2,0.1,0.3,0.2s0.2,0.2,0.3,0.4c0.1,0.1,0.1,0.3,0.1,0.4h0.2l-0.4-2.7l-0.2,0.1v0.1
	c0,0.2-0.1,0.4-0.2,0.5c-0.1,0.1-0.1,0.1-0.2,0.1c-0.1,0-0.1,0-0.2,0h-0.8V4.5c0-0.1,0-0.3,0-0.4s0.1-0.2,0.2-0.3
	c0.1-0.1,0.3-0.2,0.6-0.2c0.2,0,0.5,0,0.7,0.1s0.5,0.2,0.6,0.4c0.3,0.3,0.5,0.7,0.6,1.2l0.2-0.2l-0.4-2.4c-0.1,0-0.1,0-0.2,0.1
	c0,0-0.1,0-0.2,0C38.8,3,38.6,3,38.5,3h-4v0.3c0.1,0,0.2,0,0.2,0c0.1,0,0.1,0.1,0.1,0.1c0,0.1,0.1,0.1,0.1,0.2c0,0.1,0,0.2,0,0.3v5
	c0,0.1,0,0.3,0,0.4c0,0.1-0.1,0.2-0.1,0.3l-0.1,0.1c-0.1,0-0.1,0.1-0.2,0.1V10h4.3C38.8,10,38.9,10,39,10z"/>
<path class="st0" d="M33.9,6.9c0-0.1,0-0.3,0-0.4S34,6.3,34,6.2C34.2,6.1,34.3,6,34.5,6V5.8h-2.8V6h0.1c0.1,0,0.2,0.1,0.3,0.2
	c0,0.1,0.1,0.1,0.1,0.2s0,0.2,0,0.3v1.7c0,0.3-0.1,0.5-0.2,0.7c-0.1,0.2-0.3,0.3-0.6,0.3c-0.6,0-1-0.3-1.4-1
	c-0.3-0.7-0.5-1.4-0.4-2.2c0.1-0.7,0.2-1.2,0.5-1.7s0.7-0.8,1.2-0.8c0.3,0,0.7,0.1,1.1,0.3c0.2,0.1,0.3,0.3,0.5,0.5
	c0.2,0.3,0.4,0.6,0.4,0.8l0.1-0.1l-0.2-2.4C33.1,2.9,33.1,2.9,33,3c-0.1,0.1-0.2,0.1-0.3,0.1s-0.3,0-0.4-0.1
	c-0.2-0.1-0.5-0.1-0.7-0.1s-0.5,0-0.7,0c-0.5,0-0.9,0.1-1.3,0.2c-0.4,0.1-0.7,0.4-1,0.7c-0.2,0.2-0.4,0.5-0.5,0.8V8
	c0.1,0.2,0.2,0.4,0.3,0.6c0.4,0.5,0.8,0.9,1.3,1.1c0.4,0.2,1,0.3,1.7,0.3h2.9V9.7c-0.1,0-0.1-0.1-0.2-0.1C34,9.6,34,9.5,34,9.4
	c0-0.1-0.1-0.2-0.1-0.2V6.9L33.9,6.9z"/>
<path class="st0" d="M0.4,11.6L0.4,11.6c0.5,0.1,1,0.1,1.4,0.2s0.8,0.1,1.1,0.1c0.4,0,1.2-0.1,1.7-0.3c0.6-0.2,1-0.5,1.3-1
	c0.4-0.5,0.6-1.1,0.6-1.8c0-0.5-0.1-1.1-0.4-1.5c0-0.2-0.2-0.4-0.4-0.5C5.4,6.6,5,6.4,4.6,6.3C4.2,6.1,3.7,5.9,3.3,5.8
	C2.9,5.7,2.6,5.6,2.4,5.3C2,5,2.1,4.4,2.4,4C2.6,3.8,2.8,3.7,3,3.7c0.8-0.2,1.3,0.2,2.1,0.9c0.2,0.2,0.3,0.5,0.3,0.5l0.4-2.3
	c0,0.1-0.1,0.2-0.2,0.3C5.4,3.2,5.2,3,5,3C4.4,2.7,3.7,2.6,3.1,2.6c-0.3,0-0.7,0-1.1,0.1C1.7,2.8,1.5,2.9,1.3,3
	C0.5,3.4,0.2,4.2,0,4.9c0,0.5,0,1,0.2,1.5C0.5,7,0.9,7.5,1.6,7.8l2.2,0.7C4,8.6,4.1,8.8,4.2,8.9c0.3,0.5,0.2,1.3-0.3,1.7
	C3.2,11.2,2,11,1.3,10.5c-0.4-0.3-0.6-0.7-0.7-1.1c0.1-0.2,0-0.4,0-0.6H0.2L0,11.9C0.1,11.9,0.3,11.7,0.4,11.6
	C0.4,11.6,0.4,11.6,0.4,11.6z"/>
<path class="st0" d="M46,7.8c-0.2-0.4-0.4-0.7-0.7-1.1c0,0,0.2-0.1,0.4-0.3c0.3-0.2,0.6-0.5,0.8-0.8c0.3-0.4,0.4-0.8,0.4-1.2
	c0,0,0-0.1,0-0.2c0-0.4-0.2-0.7-0.5-0.9C46.1,3,45.6,2.9,45,2.9h-5.2v0.3c0.1,0,0.2,0,0.3,0.1s0.2,0.1,0.2,0.2
	c0.1,0.1,0.1,0.3,0.1,0.7c0,0.1,0,0.2,0,0.4v5.9c0,0.2,0,0.4,0,0.5s-0.1,0.2-0.2,0.3c-0.1,0.1-0.1,0.1-0.2,0.1c-0.1,0-0.1,0-0.2,0
	v0.3h3.6v-0.4c-0.1,0-0.2,0-0.3-0.1s-0.2-0.1-0.2-0.2c-0.1-0.1-0.1-0.2-0.1-0.3c0-0.2,0-0.3,0-0.5V7.9l0.4-0.2l0.5,0.7
	c0.2,0.3,0.3,0.5,0.4,0.7c0.3,0.7,0.5,1.2,0.6,1.4c0.1,0.3,0.2,0.5,0.2,0.7c0,0.1,0,0.2-0.1,0.2c-0.1,0.1-0.2,0.1-0.4,0.1v0.3H48
	v-0.3c-0.1,0-0.2-0.1-0.4-0.1c-0.1-0.1-0.3-0.4-0.5-1c-0.3-0.8-0.5-1.3-0.6-1.5C46.4,8.5,46.2,8.2,46,7.8z M44,6.1
	c-0.3,0.3-0.6,0.5-1,0.7l-0.3,0.1V4.6c0-0.1,0-0.3,0.1-0.4C42.8,4.1,42.9,4,43,4c0.2-0.1,0.4-0.1,0.5-0.1c0.3,0,0.5,0.1,0.7,0.2
	c0.2,0.2,0.3,0.4,0.3,0.7C44.5,5.3,44.3,5.7,44,6.1z"/>
<path class="st0" d="M12.7,11.3c-0.2,0.1-0.4,0.2-0.6,0.2H8.4H8.3H8.2c-0.1,0-0.1-0.1-0.2-0.1l-0.4,2.4h0.2c0-0.2,0.1-0.4,0.2-0.6
	c0-0.2,0.1-0.4,0.2-0.5c0.2-0.2,0.4-0.3,0.5-0.4c0.2-0.1,0.4-0.1,0.6-0.1v5c0,0.2,0,0.4,0,0.4c0,0.1-0.1,0.2-0.1,0.3
	c-0.1,0.2-0.3,0.2-0.4,0.2H8.7v0.3h3.2v-0.3c-0.1,0-0.2,0-0.3-0.1c-0.1,0-0.2-0.1-0.2-0.2c-0.1-0.1-0.1-0.2-0.1-0.4
	c0-0.1,0-0.3,0-0.4l0,0v-4.8c0.3,0,0.5,0.1,0.7,0.2s0.4,0.3,0.6,0.6c0.2,0.2,0.3,0.5,0.3,0.8l0.2-0.1C13,13.7,12.7,11.3,12.7,11.3z"
	/>
<path class="st0" d="M16.5,12c0.1,0,0.1,0,0.2,0s0.2,0.1,0.2,0.1c0.1,0.1,0.1,0.2,0.1,0.3s0,0.3,0,0.5v0.6h-1.8v-0.6
	c0-0.3,0.1-0.6,0.2-0.8c0-0.1,0.1-0.1,0.2-0.1c0.1,0,0.1,0,0.2,0v-0.3H13V12c0.1,0,0.2,0,0.2,0.1s0.1,0.1,0.2,0.2
	c0,0.1,0.1,0.1,0.1,0.2c0,0.1,0,0.2,0,0.3v0.1v4.5c0,0.1,0,0.3-0.1,0.5c0,0.2-0.1,0.3-0.1,0.3c0,0.1-0.1,0.1-0.2,0.1
	c-0.1,0-0.1,0-0.2,0.1v0.3h2.8v-0.3c-0.2,0-0.3-0.1-0.4-0.2c0-0.1-0.1-0.1-0.1-0.2s0-0.2,0-0.3v-3.3H17v3.3c0,0.1,0,0.2,0,0.3
	c0,0.1,0,0.2-0.1,0.2c-0.1,0.1-0.2,0.2-0.4,0.2v0.3h2.8v-0.3c-0.1,0-0.3,0-0.4-0.2c-0.1-0.1-0.1-0.2-0.1-0.2c0-0.1,0-0.2,0-0.4V13
	c0-0.1,0-0.3,0-0.4c0-0.1,0.1-0.2,0.1-0.3s0.1-0.1,0.2-0.2c0.1,0,0.1,0,0.2,0v-0.3h-2.8L16.5,12L16.5,12z"/>
<path class="st0" d="M19.7,12c0.1,0,0.2,0,0.3,0.1c0.1,0,0.1,0.1,0.1,0.1c0.1,0.1,0.1,0.2,0.1,0.3s0,0.3,0,0.5v4.6
	c0,0.1,0,0.2,0,0.3c0,0.1-0.1,0.2-0.1,0.2c-0.1,0.2-0.2,0.2-0.4,0.2v0.3h2.8v-0.3c-0.1,0-0.1,0-0.2-0.1c-0.1,0-0.1-0.1-0.2-0.1
	C22,18,22,17.9,22,17.9c0-0.1,0-0.2,0-0.4v-4.6c0-0.2,0-0.3,0-0.4c0-0.1,0-0.2,0.1-0.3c0-0.1,0.1-0.1,0.1-0.1c0.1,0,0.2-0.1,0.2-0.1
	v-0.3h-2.9C19.7,11.7,19.7,12,19.7,12z"/>
<path class="st0" d="M28.1,18.1c0-0.1-0.1-0.2-0.1-0.3c0-0.1,0-0.2,0-0.3V13c0-0.1,0-0.3,0-0.4c0-0.1,0.1-0.3,0.1-0.4
	c0-0.1,0.1-0.1,0.2-0.2h0.1v-0.3h-1.8V12c0.1,0,0.2,0,0.2,0.1c0.1,0,0.1,0.1,0.2,0.2c0,0.1,0.1,0.1,0.1,0.2c0,0.1,0,0.2,0,0.3v1.6
	l-1.2-1.7l-0.1-0.1c0-0.1-0.1-0.1-0.1-0.2v-0.1l0.1-0.1h0.1v-0.3h-3.4V12c0.1,0,0.3,0.1,0.3,0.2c0,0,0.1,0.1,0.1,0.3
	c0,0.1,0,0.3,0,0.4v4.3c0,0.2,0,0.4-0.1,0.6s-0.1,0.3-0.2,0.4c0,0-0.1,0-0.1,0.1c-0.1,0-0.1,0-0.2,0v0.3H24v-0.3
	c-0.1,0-0.2,0-0.2-0.1c-0.1,0-0.1-0.1-0.1-0.2s-0.1-0.1-0.1-0.2s0-0.2,0-0.3v-4.6l2.7,3.7c0.2,0.2,0.3,0.4,0.3,0.5
	c0.1,0.2,0.1,0.4,0.1,0.6c0,0.3-0.1,0.5-0.3,0.6c0,0-0.1,0-0.2,0v0.3H28v-0.3c-0.1,0-0.2,0-0.2-0.1C28.2,18.2,28.2,18.1,28.1,18.1z"
	/>
<path class="st0" d="M38.9,14.5L37.5,14c-0.2-0.1-0.4-0.2-0.5-0.4c-0.1-0.1-0.1-0.3-0.1-0.4c0-0.2,0-0.3,0.1-0.5
	c0.1-0.1,0.1-0.2,0.3-0.3c0.1-0.1,0.3-0.1,0.4-0.1c0.2,0,0.4,0,0.6,0.1c0.2,0.1,0.4,0.2,0.5,0.3c0.2,0.1,0.4,0.4,0.5,0.7
	c0.1,0.1,0.1,0.2,0.1,0.3l0.2-0.1l-0.2-2.2c-0.1,0-0.1,0.1-0.2,0.1c-0.1,0.1-0.2,0.1-0.3,0.1c0,0,0,0-0.1,0
	c-0.3-0.1-0.5-0.1-0.8-0.2c-0.2-0.1-0.5-0.1-0.7-0.1s-0.3,0-0.4,0c-0.6,0.1-1,0.4-1.4,0.8c-0.4,0.4-0.6,0.9-0.6,1.5
	c0,0.4,0.1,0.8,0.3,1.1s0.5,0.5,0.9,0.6l1.5,0.6c0.1,0.1,0.3,0.1,0.3,0.3c0.1,0.1,0.1,0.3,0.1,0.4s0,0.1,0,0.2
	c0,0.3-0.2,0.5-0.4,0.6s-0.5,0.2-0.8,0.2s-0.5-0.1-0.8-0.2s-0.5-0.3-0.7-0.6c-0.2-0.2-0.3-0.5-0.4-0.7c-0.1-0.2-0.1-0.4-0.1-0.6
	h-0.2l0.2,2.8l0.1-0.1c0,0,0.1,0,0.1-0.1h0.1c0.4,0.1,0.7,0.1,1.1,0.2c0.4,0.1,0.7,0.1,1,0.1c0.4,0,0.7-0.1,1.1-0.2
	c0.5-0.2,0.9-0.4,1.2-0.8C39.9,17,40,16.5,40,16s-0.1-0.9-0.3-1.2C39.6,14.9,39.3,14.6,38.9,14.5z"/>
<path class="st0" d="M34.2,18c0-0.1-0.1-0.2-0.1-0.2v-2.3c0-0.1,0-0.3,0-0.4c0-0.1,0.1-0.2,0.1-0.3c0.1-0.2,0.3-0.2,0.4-0.2v-0.2
	h-2.8v0.3H32c0.1,0,0.2,0.1,0.3,0.2c0,0.1,0.1,0.1,0.1,0.2c0,0.1,0,0.2,0,0.3v1.7c0,0.3-0.1,0.5-0.2,0.7c-0.1,0.2-0.3,0.3-0.6,0.3
	c-0.6,0-1-0.3-1.4-1c-0.3-0.7-0.5-1.4-0.4-2.2c0.1-0.7,0.2-1.2,0.5-1.7s0.7-0.8,1.2-0.8c0.3,0,0.7,0.1,1.1,0.3
	c0.2,0.1,0.3,0.3,0.5,0.5c0.2,0.3,0.4,0.6,0.4,0.8l0.1-0.1l-0.2-2.4c-0.1,0.1-0.1,0.1-0.2,0.2c-0.1,0.1-0.2,0.1-0.3,0.1
	s-0.3,0-0.4-0.1c-0.2-0.1-0.5-0.1-0.7-0.1s-0.5,0-0.7,0c-0.5,0-0.9,0.1-1.3,0.2c-0.4,0.1-0.7,0.4-1,0.7c-0.2,0.2-0.4,0.5-0.5,0.8
	v3.5c0.1,0.2,0.2,0.4,0.3,0.6c0.4,0.5,0.8,0.9,1.3,1.1c0.4,0.2,1,0.3,1.7,0.3h2.9v-0.3c-0.1,0-0.1-0.1-0.2-0.1
	C34.3,18.2,34.3,18.1,34.2,18z"/>
<path class="st0" d="M0,13.1h7v0.6H0V13.1z"/>
<path class="st0" d="M40,13.1h8v0.6h-8V13.1z"/>
<path class="st0" d="M0,1.4h47V2H0V1.4z"/>
</svg>
